<?xml version="1.0" encoding="utf-8"?>
<!-- Generator: Adobe Illustrator 15.0.0, SVG Export Plug-In . SVG Version: 6.00 Build 0)  -->
<!DOCTYPE svg PUBLIC "-//W3C//DTD SVG 1.1//EN" "http://www.w3.org/Graphics/SVG/1.1/DTD/svg11.dtd">
<svg version="1.1" id="Ebene_1" xmlns="http://www.w3.org/2000/svg" xmlns:xlink="http://www.w3.org/1999/xlink" x="0px" y="0px"
	 width="500px" height="500px" viewBox="0 0 500 500" enable-background="new 0 0 500 500" xml:space="preserve">
<path fill="#FFFFFF" d="M5,39v296h254v126.114L411.241,335H495V39H5z M416,231c-113,0-228,0-340,0c-9,0-9-26,0-26c112,0,227,0,340,0
	C424,205,424,231,416,231z M416,144c-113,0-228,0-340,0c-9,0-9-26,0-26c112,0,227,0,340,0C424,118,424,144,416,144z"/>
</svg>
