<?xml version="1.0" encoding="utf-8"?>
<!-- Generator: Adobe Illustrator 15.0.0, SVG Export Plug-In . SVG Version: 6.00 Build 0)  -->
<!DOCTYPE svg PUBLIC "-//W3C//DTD SVG 1.1//EN" "http://www.w3.org/Graphics/SVG/1.1/DTD/svg11.dtd">
<svg version="1.1" id="Ebene_1" xmlns="http://www.w3.org/2000/svg" xmlns:xlink="http://www.w3.org/1999/xlink" x="0px" y="0px"
	 width="500px" height="500px" viewBox="0 0 500 500" enable-background="new 0 0 500 500" xml:space="preserve">
<g>
	<polygon fill="#FFFFFF" points="30,138 30,360 155.666,360 287,490.672 287,13.513 156.118,138 	"/>
	<path fill="#FFFFFF" d="M327.063,175.625c41.497,43.087,41.497,109.849,0,152.936c-9.816,10.197,5.691,25.742,15.528,15.528
		c49.837-51.744,49.837-132.248,0-183.996C332.754,149.878,317.246,165.423,327.063,175.625z"/>
	<path fill="#FFFFFF" d="M401.449,76.514c-9.93-10.122-25.45,5.415-15.528,15.528c87.043,88.718,87.039,231.384,0,320.102
		c-9.922,10.114,5.599,25.646,15.528,15.528C496.845,330.436,496.849,173.746,401.449,76.514z"/>
</g>
</svg>
